<svg width="50" height="55" viewBox="0 0 50 55" fill="none" xmlns="http://www.w3.org/2000/svg">
<path d="M12.308 48.0834C12.308 49.3051 10.969 50.0541 9.9279 49.4149L2.74284 45.0029C1.74167 44.3882 1.75163 42.9299 2.7611 42.3288L9.94617 38.0509C10.9877 37.4308 12.308 38.1813 12.308 39.3935V48.0834ZM20.7131 52.5861C19.6721 53.2291 18.3295 52.4803 18.3295 51.2567V34.6213C18.3295 34.0748 18.044 33.5681 17.5765 33.2849L2.23559 23.9921C1.22479 23.3798 1.23337 21.9103 2.25126 21.3099L11.9497 15.5888C12.447 15.2954 13.0657 15.3003 13.5584 15.6014L29.8893 25.5833C30.3537 25.8671 30.6369 26.3722 30.6369 26.9165V45.5848C30.6369 46.1265 30.3564 46.6295 29.8955 46.9142L20.7131 52.5861ZM38.4572 50.1365C37.4158 50.7625 36.0896 50.0124 36.0896 48.7973V24.1656C36.0896 23.62 35.805 23.1139 35.3388 22.8305L13.4592 9.52903C12.4512 8.91622 12.4599 7.45015 13.475 6.84928L24.2593 0.466163C24.7457 0.178263 25.3497 0.175498 25.8387 0.458931L49.221 14.0112C49.7032 14.2907 50 14.8058 50 15.3631V42.3135C50 42.8618 49.7125 43.3701 49.2426 43.6526L38.4572 50.1365Z" fill="#2149DB"/>
</svg>
